<svg xmlns="http://www.w3.org/2000/svg" viewBox="0 0 307.91 42.4"><defs><style>.cls-2{fill:#004e98}</style></defs><g id="レイヤー_2" data-name="レイヤー 2"><g id="レイヤー_1-2" data-name="レイヤー 1"><path fill="#d70c18" d="M.27 36.29h103.69v6.11H.27z"/><path class="cls-2" d="M35.22 21.52a.52.52 0 01-.56-.66L37.5 5.08a.83.83 0 01.5-.62 20.75 20.75 0 017-1.38c5.22 0 7.56 3.32 6.7 8.22L50 21a.61.61 0 01-.65.55h-4a.54.54 0 01-.55-.66l1.72-10.08c.48-2.2-.32-3.21-2.15-3.21a5.72 5.72 0 00-2.21.4l-2.28 13a.6.6 0 01-.66.55zM87.66 21.52a.51.51 0 01-.55-.66l2.83-15.78a.85.85 0 01.51-.62 20.75 20.75 0 017-1.38c5.22 0 7.56 3.32 6.7 8.22l-1.72 9.7a.61.61 0 01-.65.55h-4a.54.54 0 01-.55-.66L99 10.78c.42-2.17-.34-3.18-2.17-3.18a5.72 5.72 0 00-2.23.4l-2.28 13a.6.6 0 01-.66.55zM64.15 7.68h.13a10.65 10.65 0 011.72.54c.38.17.66.11.79-.27l1.08-2.77c.11-.3.11-.54-.1-.68A10.25 10.25 0 0066 3.7c-.35-.12-.71-.24-1.08-.34a11.37 11.37 0 00-3.09-.25c-3.71.19-6.26 1.7-6.94 4.94-.76 3.73 1.94 5.77 5.32 6.46 1.38.31 2.59.59 2.35 1.66-.17.79-1 1.31-2.66 1.31A7.41 7.41 0 0155.38 16a.56.56 0 00-.83.14l-2 2.69a.55.55 0 00.11.83 10.49 10.49 0 007 2.32c4.31 0 7.38-1.7 8.08-5.35.72-4-2.59-5.7-5.25-6.29-1.62-.34-2.72-.7-2.49-1.73.14-.87.94-1.14 2.21-1.14a9.3 9.3 0 011.79.17zM11.71 7.68h.13a10.65 10.65 0 011.67.51c.38.17.66.11.79-.27l1.08-2.77c.11-.3.11-.54-.1-.68a9.9 9.9 0 00-1.75-.8c-.35-.12-.71-.24-1.08-.34a11.37 11.37 0 00-3.09-.25C5.65 3.3 3.1 4.81 2.42 8.05c-.76 3.73 1.94 5.77 5.32 6.46 1.38.31 2.59.59 2.35 1.66-.17.79-1 1.31-2.66 1.31A7.41 7.41 0 012.94 16a.56.56 0 00-.83.14l-2 2.69a.55.55 0 00.11.83 10.49 10.49 0 007 2.32c4.31 0 7.38-1.7 8.08-5.35.72-4-2.59-5.7-5.25-6.29-1.62-.34-2.72-.7-2.52-1.73.14-.87.94-1.14 2.21-1.14a9.3 9.3 0 011.79.17zM27 3.08a17.91 17.91 0 00-2.89.23 12.14 12.14 0 00-3.37 1.08c-.21.13-.23.37-.14.68L21.53 8a.48.48 0 00.64.37 9.9 9.9 0 012.08-.51h.07a13 13 0 011.54-.1c2.17 0 2.66.93 2.35 2.62l-.07.55a15.65 15.65 0 00-2.94-.27c-4.42 0-7.25 1.48-7.83 4.83C16.68 19.2 19.13 22 24 22a22.3 22.3 0 007.18-1.21.81.81 0 00.52-.66l1.55-8.73c.9-5.21-1.52-8.32-6.25-8.32zm-1.84 15.39a2.37 2.37 0 112.37-2.37 2.38 2.38 0 01-2.37 2.37zM79.47 3.08a17.91 17.91 0 00-2.89.23 12.14 12.14 0 00-3.37 1.08c-.21.13-.23.37-.14.68L74 8a.48.48 0 00.64.37 9.9 9.9 0 012.08-.51h.07a13 13 0 011.54-.1c2.18 0 2.66.93 2.35 2.62l-.07.55a15.65 15.65 0 00-2.94-.27c-4.42 0-7.25 1.48-7.83 4.83C69.12 19.2 71.57 22 76.4 22a22.3 22.3 0 007.18-1.21.81.81 0 00.52-.66l1.55-8.73c.94-5.21-1.48-8.32-6.18-8.32zM77.6 18.47A2.37 2.37 0 1180 16.1a2.37 2.37 0 01-2.4 2.37zM181.36 3.26h5.54a.62.62 0 01.6.73l-1.34 6.69H194a.58.58 0 01.58.7l-.92 4.75a.58.58 0 01-.57.48H185l-1.72 8.85a6.55 6.55 0 00.09 3.58c.35.9 1.32 1.34 2.92 1.34a14.73 14.73 0 002.41-.21q.84-.15 1.59-.36a.58.58 0 01.74.57l-.06 4a1 1 0 01-.69 1c-.74.25-1.52.47-2.36.67a18 18 0 01-4 .38 11.5 11.5 0 01-4.68-.79 5.78 5.78 0 01-2.63-2.2 6.79 6.79 0 01-.94-3.42 20.68 20.68 0 01.41-4.45l4.19-21.44a1.06 1.06 0 011.09-.87zM150.33 12.45a9.86 9.86 0 00-2.68-5 11.91 11.91 0 00-5.13-2.88 25.89 25.89 0 00-7.22-.92c-1.28 0-2.82.06-4.63.16a45.16 45.16 0 00-4.58.51 1 1 0 00-.82.8l-5.68 29.18a1 1 0 00.82 1.18 34.66 34.66 0 003.9.46c1.68.11 3.17.16 4.45.16a28.74 28.74 0 007.79-1 19.53 19.53 0 006.33-3 17.94 17.94 0 004.63-5.1 21.48 21.48 0 002.67-7.19 18.07 18.07 0 00.15-7.36zm-7.51 7.36a12.75 12.75 0 01-4 7.46q-3.1 2.7-8.46 2.7h-1.58l-1.15-.07 3.89-20c.47-.06 1-.1 1.49-.12h1.52c3.57 0 6 .86 7.32 2.56s1.61 4.15.97 7.47zM278.17 34.11a1 1 0 01-.74.78c-1.12.28-2.46.54-4.05.78a38.34 38.34 0 01-5.85.43 12.44 12.44 0 01-4.94-.82 5.91 5.91 0 01-2.78-2.28 7.46 7.46 0 01-1-3.55 18.88 18.88 0 01.38-4.53l2.45-12.59a1 1 0 011-.81h5.31a.56.56 0 01.55.67l-2.31 11.91a9.2 9.2 0 00-.06 4.76c.39 1 1.38 1.46 3 1.46.49 0 1 0 1.57-.07s1.06-.09 1.5-.16l3.45-17.77a1 1 0 011-.8h5.31a.56.56 0 01.56.67zM307.84 18.33a9.38 9.38 0 00-1.25-4 6.63 6.63 0 00-2.8-2.54 9.66 9.66 0 00-4.36-.89 13.15 13.15 0 00-2.7.27 14.22 14.22 0 00-2.53.78L296.39.68a.57.57 0 00-.56-.68h-5.3a1 1 0 00-1 .8l-6.42 33a1 1 0 00.71 1.16l1.12.27c.76.17 1.56.31 2.41.43s1.71.22 2.59.3 1.74.11 2.57.11a16.11 16.11 0 005.48-.89 13.78 13.78 0 004.43-2.54 14.48 14.48 0 003.22-4 17.2 17.2 0 001.86-5.22 17.82 17.82 0 00.34-5.09zm-7.24 5a10.1 10.1 0 01-2.4 5.08 6 6 0 01-4.59 1.92c-.61 0-1.17 0-1.68-.07a10 10 0 01-1.25-.16l2.41-12.4a7.23 7.23 0 011.81-.7 8.31 8.31 0 012.1-.3c3.26 0 4.46 2.2 3.6 6.59zM163.78 11.81a23.58 23.58 0 00-3.73.3 15.2 15.2 0 00-4.33 1.39c-.27.16-.29.47-.18.88l1.16 3.71a.61.61 0 00.82.47 13 13 0 012.68-.65h.09a14.31 14.31 0 012-.14c2.8 0 3.42 1.2 3 3.38l-.09.71a19.94 19.94 0 00-3.77-.36c-5.69 0-9.33 1.91-10.08 6.22-.89 4.84 2.26 8.39 8.48 8.39a28.58 28.58 0 009.23-1.55 1 1 0 00.67-.84l2-11.24c1.2-6.67-1.91-10.67-7.95-10.67zm-2.41 19.8a3 3 0 113-3.05 3 3 0 01-3 3.05zM207.18 11.81a23.58 23.58 0 00-3.73.3 15.2 15.2 0 00-4.33 1.39c-.28.16-.29.47-.18.88l1.16 3.71a.6.6 0 00.82.47 12.89 12.89 0 012.67-.65h.09a14.57 14.57 0 012-.14c2.8 0 3.42 1.2 3 3.38l-.09.71a20 20 0 00-3.78-.36c-5.68 0-9.32 1.91-10.08 6.22-.88 4.84 2.27 8.39 8.49 8.39a28.63 28.63 0 009.23-1.55 1 1 0 00.67-.84l2-11.24c1.21-6.67-1.9-10.67-7.94-10.67zm-2.42 19.8a3 3 0 113.05-3.05 3.06 3.06 0 01-3.05 3.05zM253.19 0H259a.59.59 0 01.58.7l-6.7 34.57a1 1 0 01-1 .83h-5.76a.59.59 0 01-.58-.7L248 22.3h-12.29l-2.51 13a1 1 0 01-1 .83h-5.76a.59.59 0 01-.58-.7l6.69-34.6a1 1 0 011-.83h5.76a.59.59 0 01.58.7l-3 15.31h12.31L252.18.83a1 1 0 011.01-.83z"/></g></g></svg>